<mxfile host="app.diagrams.net" modified="2023-02-01T11:57:55.723Z" agent="5.0 (Windows NT 10.0; Win64; x64) AppleWebKit/537.36 (KHTML, like Gecko) Chrome/109.0.0.0 Safari/537.36 Edg/109.0.1518.70" etag="P_IdLmUeIG6JLv7nB9zV" version="20.8.11" type="github">
  <diagram name="Pagina-1" id="XBzo9uowQzEhQEVSnCfU">
    <mxGraphModel dx="1434" dy="774" grid="1" gridSize="10" guides="1" tooltips="1" connect="1" arrows="1" fold="1" page="1" pageScale="1" pageWidth="827" pageHeight="1169" math="0" shadow="0">
      <root>
        <mxCell id="0" />
        <mxCell id="1" parent="0" />
        <mxCell id="d2WyGDaG5Scl1qo8g_Xo-31" style="edgeStyle=orthogonalEdgeStyle;rounded=0;orthogonalLoop=1;jettySize=auto;html=1;exitX=0.5;exitY=1;exitDx=0;exitDy=0;" edge="1" parent="1" source="d2WyGDaG5Scl1qo8g_Xo-1">
          <mxGeometry relative="1" as="geometry">
            <mxPoint x="520" y="560" as="targetPoint" />
            <Array as="points">
              <mxPoint x="430" y="420" />
              <mxPoint x="430" y="560" />
            </Array>
          </mxGeometry>
        </mxCell>
        <mxCell id="d2WyGDaG5Scl1qo8g_Xo-1" value="" style="rounded=0;whiteSpace=wrap;html=1;" vertex="1" parent="1">
          <mxGeometry x="360" y="360" width="120" height="60" as="geometry" />
        </mxCell>
        <mxCell id="d2WyGDaG5Scl1qo8g_Xo-8" style="edgeStyle=orthogonalEdgeStyle;rounded=0;orthogonalLoop=1;jettySize=auto;html=1;" edge="1" parent="1" source="d2WyGDaG5Scl1qo8g_Xo-3">
          <mxGeometry relative="1" as="geometry">
            <mxPoint x="490" y="370" as="targetPoint" />
            <Array as="points">
              <mxPoint x="520" y="370" />
              <mxPoint x="490" y="370" />
            </Array>
          </mxGeometry>
        </mxCell>
        <mxCell id="d2WyGDaG5Scl1qo8g_Xo-3" value="" style="rounded=0;whiteSpace=wrap;html=1;" vertex="1" parent="1">
          <mxGeometry x="480" y="240" width="80" height="40" as="geometry" />
        </mxCell>
        <mxCell id="d2WyGDaG5Scl1qo8g_Xo-5" value="Read Line" style="text;html=1;strokeColor=none;fillColor=none;align=center;verticalAlign=middle;whiteSpace=wrap;rounded=0;" vertex="1" parent="1">
          <mxGeometry x="490" y="245" width="60" height="30" as="geometry" />
        </mxCell>
        <mxCell id="d2WyGDaG5Scl1qo8g_Xo-6" value="Microcontroller" style="text;html=1;strokeColor=none;fillColor=none;align=center;verticalAlign=middle;whiteSpace=wrap;rounded=0;" vertex="1" parent="1">
          <mxGeometry x="390" y="375" width="60" height="30" as="geometry" />
        </mxCell>
        <mxCell id="d2WyGDaG5Scl1qo8g_Xo-7" value="" style="endArrow=classic;html=1;rounded=0;exitX=0.5;exitY=1;exitDx=0;exitDy=0;" edge="1" parent="1">
          <mxGeometry width="50" height="50" relative="1" as="geometry">
            <mxPoint x="620" y="280" as="sourcePoint" />
            <mxPoint x="490" y="380" as="targetPoint" />
            <Array as="points">
              <mxPoint x="620" y="320" />
              <mxPoint x="620" y="380" />
            </Array>
          </mxGeometry>
        </mxCell>
        <mxCell id="d2WyGDaG5Scl1qo8g_Xo-24" style="edgeStyle=orthogonalEdgeStyle;rounded=0;orthogonalLoop=1;jettySize=auto;html=1;exitX=0;exitY=0.25;exitDx=0;exitDy=0;" edge="1" parent="1" source="d2WyGDaG5Scl1qo8g_Xo-10">
          <mxGeometry relative="1" as="geometry">
            <mxPoint x="170" y="420" as="targetPoint" />
            <Array as="points">
              <mxPoint x="210" y="500" />
              <mxPoint x="210" y="420" />
            </Array>
          </mxGeometry>
        </mxCell>
        <mxCell id="d2WyGDaG5Scl1qo8g_Xo-25" style="edgeStyle=orthogonalEdgeStyle;rounded=0;orthogonalLoop=1;jettySize=auto;html=1;exitX=0;exitY=0.5;exitDx=0;exitDy=0;" edge="1" parent="1" source="d2WyGDaG5Scl1qo8g_Xo-10">
          <mxGeometry relative="1" as="geometry">
            <mxPoint x="170" y="500" as="targetPoint" />
            <Array as="points">
              <mxPoint x="240" y="530" />
              <mxPoint x="190" y="530" />
              <mxPoint x="190" y="500" />
            </Array>
          </mxGeometry>
        </mxCell>
        <mxCell id="d2WyGDaG5Scl1qo8g_Xo-26" style="edgeStyle=orthogonalEdgeStyle;rounded=0;orthogonalLoop=1;jettySize=auto;html=1;exitX=0;exitY=0.75;exitDx=0;exitDy=0;" edge="1" parent="1" source="d2WyGDaG5Scl1qo8g_Xo-10">
          <mxGeometry relative="1" as="geometry">
            <mxPoint x="170" y="580" as="targetPoint" />
            <Array as="points">
              <mxPoint x="240" y="550" />
              <mxPoint x="190" y="550" />
              <mxPoint x="190" y="580" />
            </Array>
          </mxGeometry>
        </mxCell>
        <mxCell id="d2WyGDaG5Scl1qo8g_Xo-27" style="edgeStyle=orthogonalEdgeStyle;rounded=0;orthogonalLoop=1;jettySize=auto;html=1;exitX=0;exitY=1;exitDx=0;exitDy=0;" edge="1" parent="1" source="d2WyGDaG5Scl1qo8g_Xo-10">
          <mxGeometry relative="1" as="geometry">
            <mxPoint x="170" y="660" as="targetPoint" />
            <Array as="points">
              <mxPoint x="240" y="580" />
              <mxPoint x="210" y="580" />
              <mxPoint x="210" y="660" />
            </Array>
          </mxGeometry>
        </mxCell>
        <mxCell id="d2WyGDaG5Scl1qo8g_Xo-28" style="edgeStyle=orthogonalEdgeStyle;rounded=0;orthogonalLoop=1;jettySize=auto;html=1;exitX=0;exitY=1;exitDx=0;exitDy=0;" edge="1" parent="1" source="d2WyGDaG5Scl1qo8g_Xo-10">
          <mxGeometry relative="1" as="geometry">
            <mxPoint x="170" y="740" as="targetPoint" />
            <Array as="points">
              <mxPoint x="240" y="740" />
            </Array>
          </mxGeometry>
        </mxCell>
        <mxCell id="d2WyGDaG5Scl1qo8g_Xo-10" value="" style="rounded=0;whiteSpace=wrap;html=1;fontStyle=1" vertex="1" parent="1">
          <mxGeometry x="240" y="480" width="80" height="120" as="geometry" />
        </mxCell>
        <mxCell id="d2WyGDaG5Scl1qo8g_Xo-11" value="" style="rounded=0;whiteSpace=wrap;html=1;fontStyle=1" vertex="1" parent="1">
          <mxGeometry x="580" y="420" width="80" height="80" as="geometry" />
        </mxCell>
        <mxCell id="d2WyGDaG5Scl1qo8g_Xo-12" value="Servo&lt;br&gt;Master" style="text;html=1;strokeColor=none;fillColor=none;align=center;verticalAlign=middle;whiteSpace=wrap;rounded=0;" vertex="1" parent="1">
          <mxGeometry x="250" y="525" width="60" height="30" as="geometry" />
        </mxCell>
        <mxCell id="d2WyGDaG5Scl1qo8g_Xo-13" value="LED&lt;br&gt;Status" style="text;html=1;strokeColor=none;fillColor=none;align=center;verticalAlign=middle;whiteSpace=wrap;rounded=0;" vertex="1" parent="1">
          <mxGeometry x="590" y="445" width="60" height="30" as="geometry" />
        </mxCell>
        <mxCell id="d2WyGDaG5Scl1qo8g_Xo-14" value="" style="endArrow=classic;html=1;rounded=0;exitX=0.25;exitY=1;exitDx=0;exitDy=0;" edge="1" parent="1" source="d2WyGDaG5Scl1qo8g_Xo-1">
          <mxGeometry width="50" height="50" relative="1" as="geometry">
            <mxPoint x="380" y="520" as="sourcePoint" />
            <mxPoint x="330" y="520" as="targetPoint" />
            <Array as="points">
              <mxPoint x="390" y="520" />
            </Array>
          </mxGeometry>
        </mxCell>
        <mxCell id="d2WyGDaG5Scl1qo8g_Xo-15" value="" style="endArrow=classic;html=1;rounded=0;exitX=0.917;exitY=1.055;exitDx=0;exitDy=0;exitPerimeter=0;" edge="1" parent="1" source="d2WyGDaG5Scl1qo8g_Xo-1">
          <mxGeometry width="50" height="50" relative="1" as="geometry">
            <mxPoint x="390" y="410" as="sourcePoint" />
            <mxPoint x="570" y="440" as="targetPoint" />
            <Array as="points">
              <mxPoint x="470" y="440" />
            </Array>
          </mxGeometry>
        </mxCell>
        <mxCell id="d2WyGDaG5Scl1qo8g_Xo-16" value="" style="rounded=0;whiteSpace=wrap;html=1;" vertex="1" parent="1">
          <mxGeometry x="80" y="400" width="80" height="40" as="geometry" />
        </mxCell>
        <mxCell id="d2WyGDaG5Scl1qo8g_Xo-17" value="" style="rounded=0;whiteSpace=wrap;html=1;" vertex="1" parent="1">
          <mxGeometry x="80" y="480" width="80" height="40" as="geometry" />
        </mxCell>
        <mxCell id="d2WyGDaG5Scl1qo8g_Xo-18" value="" style="rounded=0;whiteSpace=wrap;html=1;" vertex="1" parent="1">
          <mxGeometry x="80" y="560" width="80" height="40" as="geometry" />
        </mxCell>
        <mxCell id="d2WyGDaG5Scl1qo8g_Xo-19" value="" style="rounded=0;whiteSpace=wrap;html=1;" vertex="1" parent="1">
          <mxGeometry x="80" y="640" width="80" height="40" as="geometry" />
        </mxCell>
        <mxCell id="d2WyGDaG5Scl1qo8g_Xo-20" value="" style="rounded=0;whiteSpace=wrap;html=1;" vertex="1" parent="1">
          <mxGeometry x="80" y="320" width="80" height="40" as="geometry" />
        </mxCell>
        <mxCell id="d2WyGDaG5Scl1qo8g_Xo-21" value="" style="rounded=0;whiteSpace=wrap;html=1;" vertex="1" parent="1">
          <mxGeometry x="80" y="720" width="80" height="40" as="geometry" />
        </mxCell>
        <mxCell id="d2WyGDaG5Scl1qo8g_Xo-22" value="" style="endArrow=classic;html=1;rounded=0;exitX=0;exitY=0;exitDx=0;exitDy=0;" edge="1" parent="1" source="d2WyGDaG5Scl1qo8g_Xo-10">
          <mxGeometry width="50" height="50" relative="1" as="geometry">
            <mxPoint x="390" y="410" as="sourcePoint" />
            <mxPoint x="170" y="340" as="targetPoint" />
            <Array as="points">
              <mxPoint x="240" y="340" />
            </Array>
          </mxGeometry>
        </mxCell>
        <mxCell id="d2WyGDaG5Scl1qo8g_Xo-36" style="edgeStyle=orthogonalEdgeStyle;rounded=0;orthogonalLoop=1;jettySize=auto;html=1;exitX=0.25;exitY=1;exitDx=0;exitDy=0;" edge="1" parent="1" source="d2WyGDaG5Scl1qo8g_Xo-29">
          <mxGeometry relative="1" as="geometry">
            <mxPoint x="535" y="640" as="targetPoint" />
          </mxGeometry>
        </mxCell>
        <mxCell id="d2WyGDaG5Scl1qo8g_Xo-37" style="edgeStyle=orthogonalEdgeStyle;rounded=0;orthogonalLoop=1;jettySize=auto;html=1;exitX=0.75;exitY=1;exitDx=0;exitDy=0;" edge="1" parent="1" source="d2WyGDaG5Scl1qo8g_Xo-29">
          <mxGeometry relative="1" as="geometry">
            <mxPoint x="655" y="640" as="targetPoint" />
          </mxGeometry>
        </mxCell>
        <mxCell id="d2WyGDaG5Scl1qo8g_Xo-29" value="" style="rounded=0;whiteSpace=wrap;html=1;" vertex="1" parent="1">
          <mxGeometry x="535" y="530" width="120" height="60" as="geometry" />
        </mxCell>
        <mxCell id="d2WyGDaG5Scl1qo8g_Xo-32" value="Driver Motors" style="text;html=1;strokeColor=none;fillColor=none;align=center;verticalAlign=middle;whiteSpace=wrap;rounded=0;" vertex="1" parent="1">
          <mxGeometry x="565" y="545" width="60" height="30" as="geometry" />
        </mxCell>
        <mxCell id="d2WyGDaG5Scl1qo8g_Xo-34" value="" style="rounded=0;whiteSpace=wrap;html=1;" vertex="1" parent="1">
          <mxGeometry x="515" y="650" width="40" height="40" as="geometry" />
        </mxCell>
        <mxCell id="d2WyGDaG5Scl1qo8g_Xo-35" value="" style="rounded=0;whiteSpace=wrap;html=1;" vertex="1" parent="1">
          <mxGeometry x="635" y="650" width="40" height="40" as="geometry" />
        </mxCell>
        <mxCell id="d2WyGDaG5Scl1qo8g_Xo-38" value="ST1" style="text;html=1;strokeColor=none;fillColor=none;align=center;verticalAlign=middle;whiteSpace=wrap;rounded=0;" vertex="1" parent="1">
          <mxGeometry x="520" y="662.5" width="30" height="15" as="geometry" />
        </mxCell>
        <mxCell id="d2WyGDaG5Scl1qo8g_Xo-39" value="ST2" style="text;html=1;strokeColor=none;fillColor=none;align=center;verticalAlign=middle;whiteSpace=wrap;rounded=0;" vertex="1" parent="1">
          <mxGeometry x="640" y="662.5" width="30" height="15" as="geometry" />
        </mxCell>
        <mxCell id="d2WyGDaG5Scl1qo8g_Xo-40" value="" style="rounded=0;whiteSpace=wrap;html=1;" vertex="1" parent="1">
          <mxGeometry x="365" y="40" width="115" height="120" as="geometry" />
        </mxCell>
        <mxCell id="d2WyGDaG5Scl1qo8g_Xo-41" value="" style="endArrow=classic;startArrow=classic;html=1;rounded=0;" edge="1" parent="1">
          <mxGeometry width="50" height="50" relative="1" as="geometry">
            <mxPoint x="420" y="350" as="sourcePoint" />
            <mxPoint x="420" y="170" as="targetPoint" />
          </mxGeometry>
        </mxCell>
        <mxCell id="d2WyGDaG5Scl1qo8g_Xo-42" value="Devices control" style="text;html=1;strokeColor=none;fillColor=none;align=center;verticalAlign=middle;whiteSpace=wrap;rounded=0;" vertex="1" parent="1">
          <mxGeometry x="392.5" y="85" width="60" height="30" as="geometry" />
        </mxCell>
        <mxCell id="d2WyGDaG5Scl1qo8g_Xo-43" value="" style="rounded=0;whiteSpace=wrap;html=1;fontStyle=1" vertex="1" parent="1">
          <mxGeometry x="160" y="120" width="80" height="80" as="geometry" />
        </mxCell>
        <mxCell id="d2WyGDaG5Scl1qo8g_Xo-46" style="edgeStyle=orthogonalEdgeStyle;rounded=0;orthogonalLoop=1;jettySize=auto;html=1;" edge="1" parent="1">
          <mxGeometry relative="1" as="geometry">
            <mxPoint x="310" y="250" as="targetPoint" />
            <mxPoint x="240" y="160" as="sourcePoint" />
          </mxGeometry>
        </mxCell>
        <mxCell id="d2WyGDaG5Scl1qo8g_Xo-44" value="Battery" style="text;html=1;strokeColor=none;fillColor=none;align=center;verticalAlign=middle;whiteSpace=wrap;rounded=0;" vertex="1" parent="1">
          <mxGeometry x="170" y="145" width="60" height="30" as="geometry" />
        </mxCell>
        <mxCell id="d2WyGDaG5Scl1qo8g_Xo-47" style="edgeStyle=orthogonalEdgeStyle;rounded=0;orthogonalLoop=1;jettySize=auto;html=1;exitX=1;exitY=0.5;exitDx=0;exitDy=0;" edge="1" parent="1" source="d2WyGDaG5Scl1qo8g_Xo-45">
          <mxGeometry relative="1" as="geometry">
            <mxPoint x="380" y="350" as="targetPoint" />
            <Array as="points">
              <mxPoint x="380" y="275" />
              <mxPoint x="380" y="350" />
            </Array>
          </mxGeometry>
        </mxCell>
        <mxCell id="d2WyGDaG5Scl1qo8g_Xo-48" style="edgeStyle=orthogonalEdgeStyle;rounded=0;orthogonalLoop=1;jettySize=auto;html=1;" edge="1" parent="1">
          <mxGeometry relative="1" as="geometry">
            <mxPoint x="293" y="470" as="targetPoint" />
            <mxPoint x="293" y="300" as="sourcePoint" />
            <Array as="points">
              <mxPoint x="293" y="295" />
            </Array>
          </mxGeometry>
        </mxCell>
        <mxCell id="d2WyGDaG5Scl1qo8g_Xo-45" value="DC-DC converter" style="rounded=0;whiteSpace=wrap;html=1;" vertex="1" parent="1">
          <mxGeometry x="260" y="255" width="90" height="40" as="geometry" />
        </mxCell>
        <mxCell id="d2WyGDaG5Scl1qo8g_Xo-49" value="Servo1" style="text;html=1;strokeColor=none;fillColor=none;align=center;verticalAlign=middle;whiteSpace=wrap;rounded=0;" vertex="1" parent="1">
          <mxGeometry x="90" y="325" width="60" height="30" as="geometry" />
        </mxCell>
        <mxCell id="d2WyGDaG5Scl1qo8g_Xo-50" value="Servo2" style="text;html=1;strokeColor=none;fillColor=none;align=center;verticalAlign=middle;whiteSpace=wrap;rounded=0;" vertex="1" parent="1">
          <mxGeometry x="90" y="405" width="60" height="30" as="geometry" />
        </mxCell>
        <mxCell id="d2WyGDaG5Scl1qo8g_Xo-51" value="Servo3" style="text;html=1;strokeColor=none;fillColor=none;align=center;verticalAlign=middle;whiteSpace=wrap;rounded=0;" vertex="1" parent="1">
          <mxGeometry x="90" y="485" width="60" height="30" as="geometry" />
        </mxCell>
        <mxCell id="d2WyGDaG5Scl1qo8g_Xo-52" value="Servo4" style="text;html=1;strokeColor=none;fillColor=none;align=center;verticalAlign=middle;whiteSpace=wrap;rounded=0;" vertex="1" parent="1">
          <mxGeometry x="90" y="565" width="60" height="30" as="geometry" />
        </mxCell>
        <mxCell id="d2WyGDaG5Scl1qo8g_Xo-53" value="Servo5" style="text;html=1;strokeColor=none;fillColor=none;align=center;verticalAlign=middle;whiteSpace=wrap;rounded=0;" vertex="1" parent="1">
          <mxGeometry x="90" y="645" width="60" height="30" as="geometry" />
        </mxCell>
        <mxCell id="d2WyGDaG5Scl1qo8g_Xo-54" value="Servo6" style="text;html=1;strokeColor=none;fillColor=none;align=center;verticalAlign=middle;whiteSpace=wrap;rounded=0;" vertex="1" parent="1">
          <mxGeometry x="90" y="725" width="60" height="30" as="geometry" />
        </mxCell>
        <mxCell id="d2WyGDaG5Scl1qo8g_Xo-57" value="" style="rounded=0;whiteSpace=wrap;html=1;" vertex="1" parent="1">
          <mxGeometry x="580" y="240" width="80" height="40" as="geometry" />
        </mxCell>
        <mxCell id="d2WyGDaG5Scl1qo8g_Xo-4" value="Read Colors" style="text;html=1;strokeColor=none;fillColor=none;align=center;verticalAlign=middle;whiteSpace=wrap;rounded=0;rotation=0;" vertex="1" parent="1">
          <mxGeometry x="590" y="245" width="60" height="30" as="geometry" />
        </mxCell>
        <mxCell id="d2WyGDaG5Scl1qo8g_Xo-60" style="edgeStyle=orthogonalEdgeStyle;rounded=0;orthogonalLoop=1;jettySize=auto;html=1;exitX=0.5;exitY=1;exitDx=0;exitDy=0;" edge="1" parent="1" source="d2WyGDaG5Scl1qo8g_Xo-58">
          <mxGeometry relative="1" as="geometry">
            <mxPoint x="490" y="390" as="targetPoint" />
            <Array as="points">
              <mxPoint x="715" y="390" />
            </Array>
          </mxGeometry>
        </mxCell>
        <mxCell id="d2WyGDaG5Scl1qo8g_Xo-58" value="" style="rounded=0;whiteSpace=wrap;html=1;" vertex="1" parent="1">
          <mxGeometry x="675" y="240" width="80" height="40" as="geometry" />
        </mxCell>
        <mxCell id="d2WyGDaG5Scl1qo8g_Xo-59" value="Temph humidity" style="text;html=1;strokeColor=none;fillColor=none;align=center;verticalAlign=middle;whiteSpace=wrap;rounded=0;rotation=0;" vertex="1" parent="1">
          <mxGeometry x="685" y="245" width="60" height="30" as="geometry" />
        </mxCell>
      </root>
    </mxGraphModel>
  </diagram>
</mxfile>
